<mxfile host="app.diagrams.net" modified="2024-04-24T20:28:45.261Z" agent="Mozilla/5.0 (Windows NT 10.0; Win64; x64) AppleWebKit/537.36 (KHTML, like Gecko) Chrome/124.0.0.0 Safari/537.36" etag="xZxXDU9hA4lILtl7W0p-" version="24.2.8" type="device">
  <diagram name="Page-1" id="nbF1Mr_T_174EcbbC0X8">
    <mxGraphModel dx="1434" dy="738" grid="1" gridSize="10" guides="1" tooltips="1" connect="1" arrows="1" fold="1" page="1" pageScale="1" pageWidth="850" pageHeight="1100" math="0" shadow="0">
      <root>
        <mxCell id="0" />
        <mxCell id="1" parent="0" />
        <mxCell id="DYEfdYIxuPGYlAK_jfFQ-11" style="edgeStyle=orthogonalEdgeStyle;rounded=0;orthogonalLoop=1;jettySize=auto;html=1;entryX=0.5;entryY=0;entryDx=0;entryDy=0;strokeColor=default;strokeWidth=3;align=center;verticalAlign=middle;fontFamily=Helvetica;fontSize=11;fontColor=default;labelBackgroundColor=default;endArrow=classic;" edge="1" parent="1" source="DYEfdYIxuPGYlAK_jfFQ-1" target="DYEfdYIxuPGYlAK_jfFQ-9">
          <mxGeometry relative="1" as="geometry" />
        </mxCell>
        <mxCell id="DYEfdYIxuPGYlAK_jfFQ-1" value="&lt;font style=&quot;font-size: 15px;&quot;&gt;Start&lt;/font&gt;" style="ellipse;whiteSpace=wrap;html=1;fillColor=#d5e8d4;strokeColor=#82b366;" vertex="1" parent="1">
          <mxGeometry x="140" y="50" width="146" height="70" as="geometry" />
        </mxCell>
        <mxCell id="DYEfdYIxuPGYlAK_jfFQ-5" style="edgeStyle=orthogonalEdgeStyle;rounded=0;orthogonalLoop=1;jettySize=auto;html=1;strokeWidth=3;" edge="1" parent="1" source="DYEfdYIxuPGYlAK_jfFQ-2" target="DYEfdYIxuPGYlAK_jfFQ-4">
          <mxGeometry relative="1" as="geometry" />
        </mxCell>
        <mxCell id="DYEfdYIxuPGYlAK_jfFQ-2" value="&lt;span style=&quot;font-size: 15px;&quot;&gt;Create network object.&lt;/span&gt;" style="rounded=0;whiteSpace=wrap;html=1;fillColor=#dae8fc;strokeColor=#6c8ebf;" vertex="1" parent="1">
          <mxGeometry x="143" y="260" width="140" height="60" as="geometry" />
        </mxCell>
        <mxCell id="DYEfdYIxuPGYlAK_jfFQ-7" style="edgeStyle=orthogonalEdgeStyle;rounded=0;orthogonalLoop=1;jettySize=auto;html=1;strokeWidth=3;" edge="1" parent="1" source="DYEfdYIxuPGYlAK_jfFQ-4" target="DYEfdYIxuPGYlAK_jfFQ-6">
          <mxGeometry relative="1" as="geometry" />
        </mxCell>
        <mxCell id="DYEfdYIxuPGYlAK_jfFQ-4" value="&lt;span style=&quot;font-size: 15px;&quot;&gt;Prepare for data input from existing file&lt;/span&gt;" style="rounded=0;whiteSpace=wrap;html=1;fillColor=#dae8fc;strokeColor=#6c8ebf;" vertex="1" parent="1">
          <mxGeometry x="143" y="370" width="140" height="60" as="geometry" />
        </mxCell>
        <mxCell id="DYEfdYIxuPGYlAK_jfFQ-13" style="edgeStyle=orthogonalEdgeStyle;rounded=0;orthogonalLoop=1;jettySize=auto;html=1;strokeColor=default;strokeWidth=3;align=center;verticalAlign=middle;fontFamily=Helvetica;fontSize=11;fontColor=default;labelBackgroundColor=default;endArrow=classic;" edge="1" parent="1" source="DYEfdYIxuPGYlAK_jfFQ-6" target="DYEfdYIxuPGYlAK_jfFQ-12">
          <mxGeometry relative="1" as="geometry" />
        </mxCell>
        <mxCell id="DYEfdYIxuPGYlAK_jfFQ-6" value="&lt;span style=&quot;font-size: 15px;&quot;&gt;Pass through input layer&amp;nbsp;&lt;/span&gt;" style="rounded=0;whiteSpace=wrap;html=1;fillColor=#dae8fc;strokeColor=#6c8ebf;" vertex="1" parent="1">
          <mxGeometry x="143" y="480" width="140" height="60" as="geometry" />
        </mxCell>
        <mxCell id="DYEfdYIxuPGYlAK_jfFQ-10" style="edgeStyle=orthogonalEdgeStyle;rounded=0;orthogonalLoop=1;jettySize=auto;html=1;strokeWidth=3;" edge="1" parent="1" source="DYEfdYIxuPGYlAK_jfFQ-9" target="DYEfdYIxuPGYlAK_jfFQ-2">
          <mxGeometry relative="1" as="geometry" />
        </mxCell>
        <mxCell id="DYEfdYIxuPGYlAK_jfFQ-9" value="&lt;span style=&quot;font-size: 15px;&quot;&gt;Restive data for the three layers&lt;/span&gt;" style="rounded=0;whiteSpace=wrap;html=1;fillColor=#dae8fc;strokeColor=#6c8ebf;" vertex="1" parent="1">
          <mxGeometry x="143" y="160" width="140" height="60" as="geometry" />
        </mxCell>
        <mxCell id="DYEfdYIxuPGYlAK_jfFQ-16" style="edgeStyle=orthogonalEdgeStyle;rounded=0;orthogonalLoop=1;jettySize=auto;html=1;strokeColor=default;strokeWidth=3;align=center;verticalAlign=middle;fontFamily=Helvetica;fontSize=11;fontColor=default;labelBackgroundColor=default;endArrow=classic;" edge="1" parent="1" source="DYEfdYIxuPGYlAK_jfFQ-12" target="DYEfdYIxuPGYlAK_jfFQ-14">
          <mxGeometry relative="1" as="geometry" />
        </mxCell>
        <mxCell id="DYEfdYIxuPGYlAK_jfFQ-12" value="&lt;span style=&quot;font-size: 15px;&quot;&gt;Process input layer data&amp;nbsp;&lt;/span&gt;" style="rounded=0;whiteSpace=wrap;html=1;fillColor=#dae8fc;strokeColor=#6c8ebf;" vertex="1" parent="1">
          <mxGeometry x="143" y="590" width="140" height="60" as="geometry" />
        </mxCell>
        <mxCell id="DYEfdYIxuPGYlAK_jfFQ-17" style="edgeStyle=orthogonalEdgeStyle;rounded=0;orthogonalLoop=1;jettySize=auto;html=1;strokeColor=default;strokeWidth=3;align=center;verticalAlign=middle;fontFamily=Helvetica;fontSize=11;fontColor=default;labelBackgroundColor=default;endArrow=classic;" edge="1" parent="1" source="DYEfdYIxuPGYlAK_jfFQ-14" target="DYEfdYIxuPGYlAK_jfFQ-15">
          <mxGeometry relative="1" as="geometry" />
        </mxCell>
        <mxCell id="DYEfdYIxuPGYlAK_jfFQ-14" value="&lt;font style=&quot;font-size: 15px;&quot; face=&quot;Helvetica&quot;&gt;&lt;span style=&quot;&quot;&gt;Pass through&amp;nbsp;&lt;/span&gt;&lt;span style=&quot;text-align: left; white-space: pre;&quot;&gt;Hidden layer&lt;/span&gt;&lt;/font&gt;" style="rounded=0;whiteSpace=wrap;html=1;fillColor=#dae8fc;strokeColor=#6c8ebf;" vertex="1" parent="1">
          <mxGeometry x="143" y="700" width="140" height="60" as="geometry" />
        </mxCell>
        <mxCell id="DYEfdYIxuPGYlAK_jfFQ-20" style="edgeStyle=orthogonalEdgeStyle;rounded=0;orthogonalLoop=1;jettySize=auto;html=1;strokeColor=default;strokeWidth=3;align=center;verticalAlign=middle;fontFamily=Helvetica;fontSize=11;fontColor=default;labelBackgroundColor=default;endArrow=classic;" edge="1" parent="1" source="DYEfdYIxuPGYlAK_jfFQ-15" target="DYEfdYIxuPGYlAK_jfFQ-19">
          <mxGeometry relative="1" as="geometry" />
        </mxCell>
        <mxCell id="DYEfdYIxuPGYlAK_jfFQ-15" value="&lt;span style=&quot;font-size: 15px;&quot;&gt;Process&amp;nbsp;&lt;/span&gt;&lt;span style=&quot;font-size: 15px; text-align: left; white-space: pre;&quot;&gt;Hidden layer&lt;/span&gt;&lt;div&gt;&lt;span style=&quot;font-size: 15px;&quot;&gt;&amp;nbsp;data&amp;nbsp;&lt;/span&gt;&lt;/div&gt;" style="rounded=0;whiteSpace=wrap;html=1;fillColor=#dae8fc;strokeColor=#6c8ebf;" vertex="1" parent="1">
          <mxGeometry x="143" y="810" width="140" height="60" as="geometry" />
        </mxCell>
        <mxCell id="DYEfdYIxuPGYlAK_jfFQ-23" style="edgeStyle=orthogonalEdgeStyle;rounded=0;orthogonalLoop=1;jettySize=auto;html=1;strokeColor=default;strokeWidth=3;align=center;verticalAlign=middle;fontFamily=Helvetica;fontSize=11;fontColor=default;labelBackgroundColor=default;endArrow=classic;" edge="1" parent="1" source="DYEfdYIxuPGYlAK_jfFQ-18" target="DYEfdYIxuPGYlAK_jfFQ-22">
          <mxGeometry relative="1" as="geometry" />
        </mxCell>
        <mxCell id="DYEfdYIxuPGYlAK_jfFQ-18" value="&lt;div style=&quot;text-align: left;&quot;&gt;&lt;span style=&quot;font-size: 15px; background-color: initial;&quot;&gt;Process &lt;span style=&quot;white-space: pre;&quot;&gt;output layer&lt;/span&gt;&lt;/span&gt;&lt;/div&gt;&lt;div&gt;&lt;span style=&quot;font-size: 15px;&quot;&gt;&amp;nbsp;data&amp;nbsp;&lt;/span&gt;&lt;/div&gt;" style="rounded=0;whiteSpace=wrap;html=1;fillColor=#dae8fc;strokeColor=#6c8ebf;" vertex="1" parent="1">
          <mxGeometry x="355" y="700" width="140" height="60" as="geometry" />
        </mxCell>
        <mxCell id="DYEfdYIxuPGYlAK_jfFQ-21" value="" style="edgeStyle=orthogonalEdgeStyle;rounded=0;orthogonalLoop=1;jettySize=auto;html=1;strokeColor=default;strokeWidth=3;align=center;verticalAlign=middle;fontFamily=Helvetica;fontSize=11;fontColor=default;labelBackgroundColor=default;endArrow=classic;" edge="1" parent="1" source="DYEfdYIxuPGYlAK_jfFQ-19" target="DYEfdYIxuPGYlAK_jfFQ-18">
          <mxGeometry relative="1" as="geometry" />
        </mxCell>
        <mxCell id="DYEfdYIxuPGYlAK_jfFQ-19" value="&lt;font style=&quot;font-size: 15px;&quot; face=&quot;Helvetica&quot;&gt;&lt;span style=&quot;&quot;&gt;Pass through output&lt;/span&gt;&lt;span style=&quot;text-align: left; white-space: pre;&quot;&gt; layer&lt;/span&gt;&lt;/font&gt;" style="rounded=0;whiteSpace=wrap;html=1;fillColor=#dae8fc;strokeColor=#6c8ebf;" vertex="1" parent="1">
          <mxGeometry x="355" y="810" width="140" height="60" as="geometry" />
        </mxCell>
        <mxCell id="DYEfdYIxuPGYlAK_jfFQ-25" style="edgeStyle=orthogonalEdgeStyle;rounded=0;orthogonalLoop=1;jettySize=auto;html=1;entryX=0.5;entryY=1;entryDx=0;entryDy=0;strokeColor=default;strokeWidth=3;align=center;verticalAlign=middle;fontFamily=Helvetica;fontSize=11;fontColor=default;labelBackgroundColor=default;endArrow=classic;" edge="1" parent="1" source="DYEfdYIxuPGYlAK_jfFQ-22" target="DYEfdYIxuPGYlAK_jfFQ-24">
          <mxGeometry relative="1" as="geometry" />
        </mxCell>
        <mxCell id="DYEfdYIxuPGYlAK_jfFQ-22" value="&lt;div style=&quot;&quot;&gt;&lt;span style=&quot;font-size: 15px;&quot;&gt;Return the data from the output layer&lt;/span&gt;&lt;/div&gt;" style="rounded=0;whiteSpace=wrap;html=1;fillColor=#dae8fc;strokeColor=#6c8ebf;align=center;" vertex="1" parent="1">
          <mxGeometry x="355" y="600" width="140" height="60" as="geometry" />
        </mxCell>
        <mxCell id="DYEfdYIxuPGYlAK_jfFQ-24" value="&lt;font style=&quot;font-size: 15px;&quot;&gt;Start&lt;/font&gt;" style="ellipse;whiteSpace=wrap;html=1;fillColor=#d5e8d4;strokeColor=#82b366;" vertex="1" parent="1">
          <mxGeometry x="352" y="480" width="146" height="70" as="geometry" />
        </mxCell>
      </root>
    </mxGraphModel>
  </diagram>
</mxfile>
